<?xml version="1.0" encoding="UTF-8"?>
<svg width="31px" height="31px" viewBox="0 0 31 31" version="1.1" xmlns="http://www.w3.org/2000/svg" xmlns:xlink="http://www.w3.org/1999/xlink">
    <!-- Generator: Sketch 63 (92445) - https://sketch.com -->
    <title>分配</title>
    <desc>Created with Sketch.</desc>
    <g id="员工版切图" stroke="none" stroke-width="1" fill="none" fill-rule="evenodd">
        <g id="切图3" transform="translate(-194.000000, -205.000000)" fill="#666F83">
            <g id="分配" transform="translate(194.000000, 205.000000)">
                <g id="编组" transform="translate(13.000000, 1.000000)">
                    <rect id="矩形" x="6.46676633" y="0" width="10" height="3" rx="1.5"></rect>
                    <rect id="矩形" transform="translate(14.966766, 5.000000) rotate(-270.000000) translate(-14.966766, -5.000000) " x="9.96676633" y="3.5" width="10" height="3" rx="1.5"></rect>
                    <path d="M13.8849563,0.460920125 C14.4588242,-0.136547075 15.408379,-0.155678032 16.0058462,0.418189936 C16.5659717,0.956191157 16.6177939,1.82438585 16.149231,2.42310643 L16.0485764,2.53907987 L3.08181006,16.0390799 C2.5079421,16.6365471 1.55838733,16.655678 0.960920125,16.0818101 C0.400794625,15.5438088 0.348972463,14.6756141 0.817535319,14.0768936 L0.918189936,13.9609201 L13.8849563,0.460920125 Z" id="路径-6" fill-rule="nonzero"></path>
                </g>
                <path d="M14.0931222,0.5 C14.9215493,0.5 15.5931222,1.17157288 15.5931222,2 C15.5931222,2.77969612 14.9982341,3.42044868 14.2375822,3.49313342 L14.0931222,3.5 L5.85714286,3.5 C4.60957106,3.5 3.58837199,4.46921691 3.50543799,5.69575839 L3.5,5.85714286 L3.5,25.1428571 C3.5,26.3904289 4.46921691,27.411628 5.69575839,27.494562 L5.85714286,27.5 L25.1428571,27.5 C26.3904289,27.5 27.411628,26.5307831 27.494562,25.3042416 L27.5,25.1428571 L27.5,16.0471191 C27.5,15.218692 28.1715729,14.5471191 29,14.5471191 C29.7796961,14.5471191 30.4204487,15.1420072 30.4931334,15.9026591 L30.5,16.0471191 L30.5,25.1428571 C30.5,28.0275587 28.2199501,30.3797262 25.3636782,30.4955316 L25.1428571,30.5 L5.85714286,30.5 C2.97244126,30.5 0.620273849,28.2199501 0.504468417,25.3636782 L0.5,25.1428571 L0.5,5.85714286 C0.5,2.97244126 2.78004987,0.620273849 5.63632182,0.504468417 L5.85714286,0.5 L14.0931222,0.5 Z" id="路径" fill-rule="nonzero"></path>
            </g>
        </g>
    </g>
</svg>