<?xml version="1.0" encoding="UTF-8"?>
<svg width="32px" height="32px" viewBox="0 0 32 32" version="1.1" xmlns="http://www.w3.org/2000/svg" xmlns:xlink="http://www.w3.org/1999/xlink">
    <!-- Generator: Sketch 63 (92445) - https://sketch.com -->
    <title>作废</title>
    <desc>Created with Sketch.</desc>
    <g id="员工版切图" stroke="none" stroke-width="1" fill="none" fill-rule="evenodd">
        <g id="切图3" transform="translate(-248.000000, -205.000000)" fill="#666F83" fill-rule="nonzero">
            <g id="作废" transform="translate(264.000000, 221.000000) scale(-1, 1) rotate(-180.000000) translate(-264.000000, -221.000000) translate(250.000000, 207.000000)">
                <path d="M12.5410156,-1.5 C13.3694427,-1.5 14.0410156,-0.828427125 14.0410156,1.17905685e-13 C14.0410156,0.779696117 13.4461275,1.42044868 12.6854756,1.49313342 L12.5410156,1.5 L4,1.5 C2.6745166,1.5 1.58996133,2.53153594 1.50531768,3.83562431 L1.5,4 L1.5,24 C1.5,25.3254834 2.53153594,26.4100387 3.83562431,26.4946823 L4,26.5 L24,26.5 C25.3254834,26.5 26.4100387,25.4684641 26.4946823,24.1643757 L26.5,24 L26.5,15.4404297 C26.5,14.6120026 27.1715729,13.9404297 28,13.9404297 C28.7796961,13.9404297 29.4204487,14.5353178 29.4931334,15.2959697 L29.5,15.4404297 L29.5,24 C29.5,26.9634791 27.15622,29.3795391 24.2212071,29.4956328 L24,29.5 L4,29.5 C1.03652085,29.5 -1.37953914,27.15622 -1.4956328,24.2212071 L-1.5,24 L-1.5,4 C-1.5,1.03652085 0.843780013,-1.37953914 3.77879286,-1.4956328 L4,-1.5 L12.5410156,-1.5 Z" id="路径"></path>
                <path d="M15.9393398,-0.658802848 C16.4885146,-1.20797763 17.357577,-1.24230106 17.9467378,-0.761773121 L18.0606602,-0.658802848 L28.6588028,9.93933983 C29.2445893,10.5251263 29.2445893,11.4748737 28.6588028,12.0606602 C28.1096281,12.609835 27.2405657,12.6441584 26.6514049,12.1636304 L26.5374825,12.0606602 L15.9393398,1.4625175 C15.3535534,0.876731057 15.3535534,-0.0730164109 15.9393398,-0.658802848 Z" id="路径-7"></path>
                <path d="M15.9393398,-0.658802848 C16.4885146,-1.20797763 17.357577,-1.24230106 17.9467378,-0.761773121 L18.0606602,-0.658802848 L28.6588028,9.93933983 C29.2445893,10.5251263 29.2445893,11.4748737 28.6588028,12.0606602 C28.1096281,12.609835 27.2405657,12.6441584 26.6514049,12.1636304 L26.5374825,12.0606602 L15.9393398,1.4625175 C15.3535534,0.876731057 15.3535534,-0.0730164109 15.9393398,-0.658802848 Z" id="路径-7" transform="translate(22.299071, 5.700929) scale(-1, 1) translate(-22.299071, -5.700929) "></path>
            </g>
        </g>
    </g>
</svg>