<?xml version="1.0" encoding="UTF-8"?>
<svg width="32px" height="32px" viewBox="0 0 32 32" version="1.1" xmlns="http://www.w3.org/2000/svg" xmlns:xlink="http://www.w3.org/1999/xlink">
    <!-- Generator: Sketch 63 (92445) - https://sketch.com -->
    <title>转化</title>
    <desc>Created with Sketch.</desc>
    <g id="员工版切图" stroke="none" stroke-width="1" fill="none" fill-rule="evenodd">
        <g id="切图3" transform="translate(-395.000000, -205.000000)">
            <g id="转化" transform="translate(411.500000, 221.000000) scale(-1, 1) rotate(-180.000000) translate(-411.500000, -221.000000) translate(397.000000, 207.000000)">
                <path d="M12.5410156,-1.5 C13.3694427,-1.5 14.0410156,-0.828427125 14.0410156,0 C14.0410156,0.779696117 13.4461275,1.42044868 12.6854756,1.49313342 L12.5410156,1.5 L4,1.5 C2.6745166,1.5 1.58996133,2.53153594 1.50531768,3.83562431 L1.5,4 L1.5,24 C1.5,25.3254834 2.53153594,26.4100387 3.83562431,26.4946823 L4,26.5 L24,26.5 C25.3254834,26.5 26.4100387,25.4684641 26.4946823,24.1643757 L26.5,24 L26.5,16.4238281 C26.5,15.595401 27.1715729,14.9238281 28,14.9238281 C28.7796961,14.9238281 29.4204487,15.5187162 29.4931334,16.2793681 L29.5,16.4238281 L29.5,24 C29.5,26.9634791 27.15622,29.3795391 24.2212071,29.4956328 L24,29.5 L4,29.5 C1.03652085,29.5 -1.37953914,27.15622 -1.4956328,24.2212071 L-1.5,24 L-1.5,4 C-1.5,1.03652085 0.843780013,-1.37953914 3.77879286,-1.4956328 L4,-1.5 L12.5410156,-1.5 Z" id="路径" fill="#666F83" fill-rule="nonzero"></path>
                <path d="M28.5614088,7.64659307 C29.3244923,7.96907573 29.6816698,8.84910099 29.3591872,9.61218449 C28.1176396,12.5500305 25.2322353,14.5 21.987537,14.5 C18.7516952,14.5 15.8726207,12.5606491 14.625486,9.63480156 C14.3006496,8.87271707 14.6551091,7.99159354 15.4171936,7.66675707 C16.1792781,7.3419206 17.0604016,7.69638015 17.3852381,8.45846464 C18.1650066,10.2878451 19.9645181,11.5 21.987537,11.5 C24.0160737,11.5 25.8195695,10.2811893 26.5958174,8.44437145 C26.9183,7.68128795 27.7983253,7.3241104 28.5614088,7.64659307 Z M21.987537,-1.5 C25.2943705,-1.5 28.2238043,0.525239408 29.4244923,3.54713039 C29.7303896,4.31701244 29.3542556,5.18910388 28.5843735,5.49500113 C27.8144915,5.80089839 26.9424,5.42476439 26.6365028,4.65488234 C25.8859875,2.76598585 24.0547858,1.5 21.987537,1.5 C19.9607247,1.5 18.1584731,2.71672876 17.381121,4.55122265 C17.0579025,5.31399474 16.1775331,5.67032328 15.414761,5.34710472 C14.6519889,5.02388616 14.2956604,4.14351679 14.618879,3.3807447 C15.8621789,0.44664797 18.7456065,-1.5 21.987537,-1.5 Z" id="形状" fill="#666F83" fill-rule="nonzero"></path>
                <line x1="24.001965" y1="4.10100637" x2="28" y2="4.10100637" id="路径-10备份" stroke="#666F83" stroke-width="3" stroke-linecap="round"></line>
                <line x1="16" y1="9" x2="19.998035" y2="9" id="路径-10" stroke="#666F83" stroke-width="3" stroke-linecap="round"></line>
            </g>
        </g>
    </g>
</svg>